<?xml version="1.0" encoding="utf-8"?>
<!-- Generator: Adobe Illustrator 22.1.0, SVG Export Plug-In . SVG Version: 6.00 Build 0)  -->
<svg version="1.1" id="Capa_1" xmlns="http://www.w3.org/2000/svg" xmlns:xlink="http://www.w3.org/1999/xlink" x="0px" y="0px"
	 viewBox="0 0 512 512" style="enable-background:new 0 0 512 512;" xml:space="preserve">
<style type="text/css">
	.st0{fill:#E4562E;}
</style>
<g>
	<g id="_x34_7_61_">
		<g>
			<path class="st0" d="M120.5,49.8c-33.3,4.9-46.1,12.1-72.6,40.4C18.3,122-0.8,172.7,0,220.9c0,52.4,16.6,99.2,42.7,130.6v98.2
				c0,7.9,6.4,14.2,14.2,14.2h115.4c7.9,0,14.2-6.4,14.2-14.2V348.4c27.1-37.7,42.7-88.6,41.3-105c-1.8-21-23.6-53.6-50-45.7
				c-21.6,6.4-34.4,36.4-47.9,34.8c-11.4-1.3-7.2-22.2,5.1-42.5C155,157,234,203.5,241.5,141.3C248.9,79.1,195.7,38.7,120.5,49.8z
				 M158.1,359.4v76.2H71.2v-76.2H158.1z"/>
			<path class="st0" d="M464.1,90.3c-26.5-28.3-39.3-35.5-72.6-40.4c-75.3-11.2-128.4,29.3-121,91.5C278,203.5,357,157,376.9,190
				c12.2,20.3,16.4,41.2,5.1,42.5c-13.4,1.6-26.3-28.4-47.9-34.8c-26.4-7.9-48.2,24.7-50,45.7c-1.4,16.5,14.3,67.4,41.4,105.1v101.3
				c0,7.8,6.4,14.2,14.2,14.2h115.4c7.8,0,14.2-6.4,14.2-14.2v-98.1c26.1-31.4,42.7-78.3,42.7-130.7
				C512.8,172.7,493.7,122,464.1,90.3z M440.9,435.6h-87v-75.4h87V435.6z"/>
		</g>
	</g>
</g>
</svg>
